<svg width="765" height="665" viewBox="0 0 765 695" fill="none" xmlns="http://www.w3.org/2000/svg">
<path d="M185.617 441.394C188.275 457.409 191.487 473.258 195.308 489.052C195.584 490.105 197.135 489.662 196.913 488.609C193.093 472.87 189.825 456.966 187.223 440.95C187.001 439.898 185.395 440.341 185.617 441.394Z" fill="#AEA9A3"/>
<path d="M239.275 443.61C236.285 457.797 233.738 472.15 231.689 486.503C231.523 487.556 233.129 487.999 233.295 486.946C235.344 472.538 237.891 458.24 240.881 444.054C241.103 443.001 239.497 442.557 239.275 443.61Z" fill="#AEA9A3"/>
<path d="M195.64 489.606C207.712 495.037 221.943 495.536 232.963 487.334C233.793 486.725 232.963 485.284 232.132 485.893C221.666 493.707 208.044 493.375 196.526 488.165C195.529 487.722 194.643 489.163 195.64 489.606Z" fill="#AEA9A3"/>
<path d="M186.115 441.227C190.213 443.112 194.477 443.5 198.907 443.777C203.891 444.054 208.874 444.22 213.858 444.275C223.05 444.442 232.575 444.885 241.269 441.283C242.266 440.895 241.823 439.288 240.826 439.676C232.63 443.112 223.66 442.779 214.966 442.668C210.314 442.613 205.718 442.447 201.067 442.225C196.249 442.003 191.376 441.892 186.946 439.842C185.949 439.343 185.119 440.784 186.115 441.227Z" fill="#AEA9A3"/>
<path d="M239.663 440.729C236.396 456.024 233.516 471.43 231.135 486.891C230.969 487.944 232.575 488.387 232.741 487.334C235.122 471.873 237.946 456.467 241.269 441.172C241.49 440.119 239.884 439.676 239.663 440.729Z" fill="#AEA9A3"/>
<path d="M190.767 467.218C194.422 475.863 199.073 484.065 204.666 491.601C205.275 492.433 206.715 491.601 206.106 490.77C200.513 483.178 195.861 475.032 192.207 466.387C191.764 465.389 190.379 466.276 190.767 467.218Z" fill="#AEA9A3"/>
<path d="M186.724 442.613C194.2 460.291 203.78 476.971 215.298 492.322C215.907 493.153 217.402 492.322 216.738 491.491C205.22 476.14 195.64 459.46 188.164 441.782C187.777 440.784 186.337 441.615 186.724 442.613Z" fill="#AEA9A3"/>
<path d="M199.516 443.333C206.106 459.792 214.523 475.364 224.712 489.828C225.321 490.715 226.761 489.883 226.151 488.997C216.018 474.644 207.601 459.182 201.122 442.89C200.734 441.948 199.128 442.336 199.516 443.333Z" fill="#AEA9A3"/>
<path d="M210.314 443.666C216.129 457.52 223.217 470.82 231.467 483.4C232.077 484.286 233.516 483.455 232.907 482.568C224.712 470.1 217.679 456.966 211.92 443.223C211.532 442.281 209.927 442.724 210.314 443.666Z" fill="#AEA9A3"/>
<path d="M220.503 444.885C224.047 453.696 228.366 462.12 233.461 470.155C234.015 471.042 235.454 470.211 234.901 469.324C229.862 461.455 225.598 453.142 222.109 444.497C221.721 443.444 220.116 443.888 220.503 444.885Z" fill="#AEA9A3"/>
<path d="M229.031 444.109C231.08 448.93 233.406 453.585 236.064 458.074C236.617 459.016 238.057 458.185 237.503 457.243C234.845 452.754 232.52 448.099 230.471 443.278C230.083 442.28 228.643 443.112 229.031 444.109Z" fill="#AEA9A3"/>
<path d="M235.787 442.779C236.562 444.608 237.448 446.381 238.555 448.044C239.165 448.931 240.604 448.099 239.995 447.213C238.998 445.661 238.112 444.054 237.393 442.336C236.95 441.338 235.344 441.782 235.787 442.779Z" fill="#AEA9A3"/>
<path d="M208.653 442.28C207.822 436.794 207.601 431.253 207.878 425.655C207.545 425.933 207.158 426.21 206.826 426.431C207.988 426.875 210.148 428.205 211.422 427.595C212.529 427.041 212.308 425.378 212.363 424.325C212.585 421.278 212.917 418.562 214.523 415.902C215.907 413.63 217.734 411.635 219.396 409.529C226.041 401.217 232.132 392.461 237.725 383.373C237.226 383.373 236.783 383.373 236.285 383.373C239.054 388.194 239.995 394.622 240.604 400.108C241.213 405.539 240.992 411.025 239.497 416.29C238.112 421.167 235.842 425.711 233.129 429.978C230.415 434.134 227.204 438.789 223.272 441.893C222.441 442.558 223.604 443.721 224.435 443.056C228.588 439.787 232.021 434.855 234.845 430.421C237.725 425.933 240.051 421.056 241.38 415.902C242.819 410.416 242.93 404.708 242.21 399.111C241.49 393.625 240.549 387.418 237.78 382.597C237.448 382.043 236.673 382.098 236.34 382.597C231.024 391.242 225.265 399.61 218.953 407.59C216.461 410.748 213.304 413.852 211.865 417.675C211.2 419.393 210.979 421.167 210.868 422.995C210.813 423.494 211.034 425.766 210.591 426.043C210.259 426.265 207.767 425.046 207.324 424.88C206.77 424.713 206.327 425.157 206.272 425.655C205.94 431.363 206.272 437.016 207.102 442.668C207.213 443.777 208.819 443.333 208.653 442.28Z" fill="#AEA9A3"/>
<path d="M174.708 388.36C176.314 398.446 178.806 408.421 182.184 418.063C185.229 426.708 188.773 434.855 194.92 441.726C195.64 442.502 196.803 441.338 196.083 440.563C189.659 433.414 186.115 424.658 183.07 415.625C180.024 406.592 177.754 397.282 176.259 387.861C176.148 386.864 174.542 387.307 174.708 388.36Z" fill="#AEA9A3"/>
<path d="M174.874 387.307C178.141 390.355 182.184 392.018 186.558 392.627C188.164 392.849 193.093 392.295 193.757 393.957C194.089 394.788 193.425 397.061 193.314 398.003C193.148 399.665 192.982 401.383 192.76 403.046C192.705 403.655 193.314 403.932 193.812 403.821C195.751 403.544 197.689 403.267 199.627 402.99C202.174 402.658 203.337 404.431 205.109 406.038C208.155 408.864 211.145 411.746 214.19 414.572C214.966 415.293 216.129 414.129 215.353 413.408C211.477 409.751 207.712 405.595 203.503 402.27C200.79 400.108 196.581 401.771 193.369 402.214C193.702 402.491 194.089 402.768 194.422 402.99C194.754 399.998 195.751 396.34 195.418 393.348C195.252 391.907 194.255 391.463 192.926 391.353C186.669 390.854 180.91 390.743 175.982 386.143C175.262 385.368 174.044 386.531 174.874 387.307Z" fill="#AEA9A3"/>
<path d="M174.985 386.42C175.926 406.925 185.285 425.489 195.64 442.779C196.194 443.721 197.633 442.835 197.08 441.948C186.891 424.88 177.588 406.647 176.646 386.42C176.591 385.312 174.93 385.312 174.985 386.42Z" fill="#AEA9A3"/>
<path d="M186.835 440.784C189.438 440.895 191.985 440.84 194.588 440.562C195.64 440.452 195.64 438.789 194.588 438.9C191.985 439.177 189.438 439.232 186.835 439.122C185.728 439.066 185.728 440.729 186.835 440.784Z" fill="#AEA9A3"/>
<path d="M188.829 441.505C191.044 441.449 193.203 441.837 195.252 442.668C196.249 443.056 197.08 441.671 196.083 441.228C193.757 440.23 191.376 439.731 188.829 439.787C187.777 439.897 187.777 441.56 188.829 441.505Z" fill="#AEA9A3"/>
<path d="M223.383 443.777C228.865 441.505 234.568 440.618 240.494 441.228C241.546 441.338 241.546 439.676 240.494 439.565C234.458 439.011 228.533 439.842 222.94 442.225C221.998 442.558 222.386 444.165 223.383 443.777Z" fill="#AEA9A3"/>
<path d="M227.037 443.112C230.471 441.726 234.236 442.391 237.78 441.782C238.832 441.616 238.389 440.008 237.337 440.175C233.738 440.784 230.028 440.064 226.594 441.505C225.653 441.948 226.096 443.555 227.037 443.112Z" fill="#AEA9A3"/>
<path d="M227.48 440.784C231.689 441.228 235.897 441.283 240.161 440.95C241.213 440.895 241.213 439.233 240.161 439.288C235.897 439.565 231.689 439.51 227.48 439.122C226.428 439.011 226.428 440.673 227.48 440.784Z" fill="#AEA9A3"/>
<path d="M236.894 387.473C232.852 407.479 217.125 422.663 212.861 442.613C212.695 443.389 213.914 443.721 214.08 442.945C218.344 422.995 234.07 407.811 238.112 387.806C238.279 387.03 237.06 386.697 236.894 387.473Z" fill="#AEA9A3"/>
<path d="M174.597 386.143C175.982 399.665 179.803 412.688 186.005 424.769C186.392 425.489 187.444 424.88 187.057 424.159C181.021 412.3 177.2 399.443 175.871 386.143C175.76 385.368 174.487 385.312 174.597 386.143Z" fill="#AEA9A3"/>
<path d="M175.649 386.531C180.024 389.967 185.008 392.184 190.545 393.015C191.321 393.126 191.653 391.907 190.878 391.796C185.617 391.02 180.744 388.97 176.535 385.645C175.871 385.146 174.985 386.032 175.649 386.531Z" fill="#AEA9A3"/>
<path d="M217.679 410.582C219.174 415.459 219.839 420.391 219.617 425.434C219.562 426.21 220.836 426.21 220.891 425.434C221.057 420.225 220.393 415.182 218.897 410.25C218.676 409.474 217.458 409.806 217.679 410.582Z" fill="#AEA9A3"/>
<path d="M236.396 384.647C237.06 386.864 236.894 389.136 235.842 391.242C235.454 391.962 236.562 392.572 236.894 391.851C238.112 389.468 238.334 386.864 237.559 384.315C237.393 383.539 236.174 383.871 236.396 384.647Z" fill="#AEA9A3"/>
<path d="M226.262 414.738C231.855 410.471 237.448 406.204 241.878 400.607C242.376 399.997 241.49 399.111 240.992 399.72C236.673 405.207 231.191 409.474 225.653 413.63C225.044 414.129 225.653 415.237 226.262 414.738Z" fill="#AEA9A3"/>
<path d="M175.982 388.692C180.633 397.06 185.728 405.096 191.321 412.854C196.581 420.169 203.282 426.985 206.161 435.63C206.438 436.406 207.601 436.074 207.379 435.298C204.5 426.819 198.187 420.169 192.982 413.02C187.167 405.04 181.851 396.672 177.034 388.027C176.702 387.362 175.594 388.027 175.982 388.692Z" fill="#AEA9A3"/>
<path d="M187.777 392.184C187.444 397.836 187.943 403.433 189.216 408.92C189.382 409.695 190.601 409.363 190.435 408.587C189.161 403.156 188.718 397.726 189.05 392.184C189.106 391.353 187.832 391.353 187.777 392.184Z" fill="#AEA9A3"/>
<path d="M204.555 406.204C202.894 412.577 201.897 419.006 201.51 425.545C201.454 426.321 202.728 426.321 202.783 425.545C203.171 419.116 204.168 412.743 205.773 406.537C205.995 405.761 204.777 405.428 204.555 406.204Z" fill="#AEA9A3"/>
<path d="M188.164 429.258C190.324 430.754 193.812 431.086 196.36 431.419C199.073 431.807 201.676 431.751 204.278 431.142C205.054 430.976 204.721 429.756 203.946 429.923C201.122 430.532 198.464 430.477 195.64 430.033C193.536 429.701 190.49 429.368 188.773 428.149C188.109 427.761 187.5 428.814 188.164 429.258Z" fill="#AEA9A3"/>
<path d="M691.024 486.669C721.37 486.669 751.66 486.669 782.006 486.669C782.781 486.669 782.836 485.395 782.006 485.395C751.66 485.395 721.37 485.395 691.024 485.395C690.194 485.395 690.194 486.669 691.024 486.669Z" fill="#AEA9A3"/>
<path d="M715.611 484.896C714.005 485.395 710.683 468.548 710.517 466.996C709.797 460.9 709.963 454.694 710.96 448.598C710.572 448.598 710.185 448.598 709.742 448.598C710.849 451.701 712.676 454.084 715.334 456.024C715.999 456.467 716.608 455.414 715.943 454.971C713.562 453.253 711.901 451.036 710.904 448.321C710.738 447.822 709.797 447.656 709.686 448.321C708.468 455.691 708.468 463.228 709.742 470.598C710.406 474.477 711.403 478.246 712.787 481.959C713.23 483.178 713.95 486.835 715.943 486.17C716.719 485.838 716.386 484.619 715.611 484.896Z" fill="#AEA9A3"/>
<path d="M716.276 454.749C715.002 448.376 717.106 442.225 719.764 436.462C722.145 431.308 724.859 426.376 727.627 421.444C732.999 411.857 738.536 402.27 742.468 391.962C742.08 391.962 741.693 391.962 741.25 391.962C744.461 401.549 746.566 411.413 747.396 421.499C747.784 426.431 747.839 431.419 747.729 436.351C747.673 438.789 747.895 441.505 747.396 443.888C746.843 446.714 744.683 448.21 742.413 449.651C741.97 449.928 742.025 450.427 742.413 450.704C743.132 451.258 743.742 451.369 744.683 451.424C745.181 451.424 745.846 451.258 746.344 451.369C748.836 451.978 748.448 453.918 748.282 455.47C747.895 459.183 747.175 462.896 746.178 466.498C744.185 473.48 741.084 480.075 736.986 486.06C736.543 486.725 737.595 487.334 738.038 486.669C742.911 479.521 746.4 471.541 748.282 463.117C748.725 461.233 749.058 459.293 749.279 457.354C749.501 455.747 749.999 453.752 749.445 452.145C748.282 448.875 745.126 451.258 743.022 449.651C743.022 449.983 743.022 450.371 743.022 450.704C746.178 448.653 748.504 446.603 748.725 442.668C749.058 436.628 749.113 430.532 748.781 424.547C748.172 413.298 746.012 402.214 742.413 391.574C742.191 390.965 741.416 391.02 741.194 391.574C736.875 403.045 730.452 413.575 724.526 424.27C719.487 433.414 712.842 444.109 715.002 455.026C715.223 455.858 716.442 455.525 716.276 454.749Z" fill="#AEA9A3"/>
<path d="M749.279 426.708C750.774 423.771 752.269 420.834 753.764 417.842C754.484 416.456 755.204 415.071 755.869 413.63C756.201 413.021 756.478 412.411 756.81 411.746C757.032 411.303 757.253 410.859 757.475 410.471C757.918 409.419 758.859 409.141 760.354 409.585C760.354 410.083 761.074 410.471 761.406 410.028C768.826 401.328 775.195 391.851 780.511 381.71C780.123 381.599 779.735 381.488 779.348 381.378C779.182 389.247 779.071 397.171 779.458 405.041C779.625 408.643 779.957 412.3 780.455 415.902C780.677 417.565 781.341 419.504 781.286 421.222C781.729 422.275 781.452 423.162 780.4 423.827C780.068 424.935 779.348 425.6 778.296 425.766C777.354 426.21 776.191 426.431 775.195 426.653C774.585 426.819 774.585 427.706 775.195 427.872C780.178 429.147 778.462 435.464 777.742 439.011C777.354 440.951 777.243 443.112 774.752 443.278C773.755 443.334 773.146 443.001 772.149 443.278C771.706 443.389 771.595 443.832 771.761 444.22C772.204 445.273 772.924 445.273 773.644 445.993C775.471 447.767 774.142 451.535 773.644 453.586C772.758 457.409 771.595 461.122 770.156 464.78C767.276 472.206 763.344 479.077 758.527 485.395C758.028 486.06 759.136 486.669 759.579 486.004C764.839 479.077 769.048 471.485 771.983 463.284C773.478 459.183 774.641 454.916 775.471 450.649C775.693 449.429 776.357 447.545 775.804 446.326C775.195 444.941 773.367 444.885 772.758 443.5C772.647 443.832 772.537 444.109 772.371 444.442C774.032 443.999 776.191 445.439 777.576 443.943C779.015 442.447 778.96 438.734 779.348 436.794C780.068 432.915 780.068 427.817 775.416 426.653C775.416 427.041 775.416 427.429 775.416 427.872C777.797 427.207 782.504 426.708 782.781 423.55C782.892 421.998 782.283 420.28 782.006 418.784C781.563 416.013 781.23 413.242 780.954 410.416C780.123 400.773 780.289 391.076 780.455 381.378C780.455 380.768 779.569 380.491 779.292 381.045C774.087 391.076 767.719 400.496 760.409 409.086C760.742 409.252 761.129 409.363 761.462 409.529C761.351 406.149 757.641 407.479 756.423 409.418C753.155 414.572 750.774 420.557 748.006 425.988C747.839 426.764 748.892 427.429 749.279 426.708Z" fill="#AEA9A3"/>
<path d="M778.572 383.705C772.869 419.393 755.592 451.646 744.462 485.783C744.24 486.558 745.403 486.891 745.68 486.115C756.755 452.034 774.087 419.781 779.79 384.037C779.901 383.262 778.738 382.929 778.572 383.705Z" fill="#AEA9A3"/>
<path d="M754.263 413.963C754.761 425.933 755.979 437.847 757.751 449.706C757.862 450.482 759.081 450.15 758.97 449.374C757.198 437.625 756.035 425.822 755.536 413.963C755.481 413.131 754.207 413.131 754.263 413.963Z" fill="#AEA9A3"/>
<path d="M740.806 394.068C740.419 425.378 723.917 454.361 726.021 485.893C726.077 486.669 727.295 486.669 727.295 485.893C725.191 454.361 741.692 425.378 742.08 394.068C742.08 393.237 740.806 393.237 740.806 394.068Z" fill="#AEA9A3"/>
<path d="M719.598 434.189C721.315 443.555 723.973 452.699 727.517 461.51C727.794 462.23 729.012 461.898 728.735 461.178C725.191 452.366 722.533 443.222 720.816 433.857C720.65 433.026 719.487 433.358 719.598 434.189Z" fill="#AEA9A3"/>
<path d="M733.11 441.394C738.592 435.132 744.96 428.482 748.393 420.834C748.726 420.114 747.673 419.449 747.341 420.225C743.908 427.761 737.65 434.356 732.224 440.507C731.725 441.117 732.611 442.003 733.11 441.394Z" fill="#AEA9A3"/>
<path d="M733.165 409.252C733.996 414.24 735.158 419.172 736.487 424.048C736.709 424.824 737.927 424.492 737.706 423.716C736.321 418.839 735.214 413.907 734.383 408.92C734.217 408.144 733.054 408.476 733.165 409.252Z" fill="#AEA9A3"/>
<path d="M747.618 480.185C752.491 477.082 757.474 474.09 762.237 470.765C766.058 468.105 770.321 465.223 772.703 461.177C773.09 460.457 772.038 459.847 771.65 460.568C769.103 464.946 764.119 468.049 760.022 470.82C755.758 473.702 751.383 476.362 747.064 479.132C746.289 479.52 746.953 480.629 747.618 480.185Z" fill="#AEA9A3"/>
<path d="M171.219 489.44C180.91 489.44 190.601 489.44 200.291 489.44C201.067 489.44 201.122 488.166 200.291 488.166C190.601 488.166 180.91 488.166 171.219 488.166C170.389 488.221 170.389 489.44 171.219 489.44Z" fill="#AEA9A3"/>
<path d="M231.412 489.883C238.943 489.883 246.419 489.883 253.95 489.883C254.725 489.883 254.78 488.609 253.95 488.609C246.419 488.609 238.943 488.609 231.412 488.609C230.637 488.609 230.637 489.883 231.412 489.883Z" fill="#AEA9A3"/>
<path d="M459.336 124.023C459.336 162.98 459.336 201.938 459.336 240.896C459.336 251.924 459.336 262.952 459.336 273.98C459.336 274.756 460.609 274.811 460.609 273.98C460.609 235.022 460.609 196.064 460.609 157.106C460.609 146.078 460.609 135.05 460.609 124.023C460.554 123.247 459.336 123.247 459.336 124.023Z" fill="#AEA9A3"/>
<path d="M460.055 124.632C501.088 124.632 542.121 124.632 583.209 124.632C594.783 124.632 606.412 124.632 617.985 124.632C618.76 124.632 618.816 123.358 617.985 123.358C576.952 123.358 535.919 123.358 494.831 123.358C483.258 123.358 471.629 123.358 460.055 123.358C459.28 123.413 459.28 124.632 460.055 124.632Z" fill="#AEA9A3"/>
<path d="M460.443 275.532C500.922 275.532 541.401 275.532 581.88 275.532C593.288 275.532 604.695 275.532 616.102 275.532C616.877 275.532 616.933 274.257 616.102 274.257C575.623 274.257 535.144 274.257 494.665 274.257C483.258 274.257 471.85 274.257 460.443 274.257C459.668 274.312 459.668 275.532 460.443 275.532Z" fill="#AEA9A3"/>
<path d="M617.376 124.41C617.376 163.147 617.376 201.883 617.376 240.564C617.376 251.647 617.376 262.675 617.376 273.758C617.376 274.534 618.649 274.59 618.649 273.758C618.649 235.022 618.649 196.286 618.649 157.605C618.649 146.522 618.649 135.494 618.649 124.41C618.649 123.635 617.376 123.579 617.376 124.41Z" fill="#AEA9A3"/>
<path d="M615.825 275.532C616.767 275.587 617.763 275.199 618.373 274.479C618.871 273.869 618.04 272.983 617.487 273.592C617.044 274.091 616.49 274.312 615.825 274.257C615.05 274.257 615.05 275.476 615.825 275.532Z" fill="#AEA9A3"/>
<path d="M459.834 210.861C500.479 210.861 541.124 210.861 581.77 210.861C593.343 210.861 604.972 210.861 616.545 210.861C617.321 210.861 617.376 209.586 616.545 209.586C575.9 209.586 535.255 209.586 494.609 209.586C483.036 209.586 471.407 209.586 459.834 209.586C459.059 209.641 459.059 210.861 459.834 210.861Z" fill="#AEA9A3"/>
<path d="M468.029 194.734C513.658 194.734 559.287 194.734 604.861 194.734C605.636 194.734 605.692 193.46 604.861 193.46C559.232 193.46 513.603 193.46 468.029 193.46C467.199 193.515 467.199 194.734 468.029 194.734Z" fill="#AEA9A3"/>
<path d="M467.697 176.835C511.942 176.835 556.186 176.835 600.431 176.835C601.206 176.835 601.262 175.56 600.431 175.56C556.186 175.56 511.942 175.56 467.697 175.56C466.922 175.56 466.922 176.835 467.697 176.835Z" fill="#AEA9A3"/>
<path d="M475.948 157.106C514.821 157.106 553.695 157.106 592.512 157.106C593.288 157.106 593.343 155.832 592.512 155.832C553.639 155.832 514.766 155.832 475.948 155.832C475.117 155.887 475.117 157.106 475.948 157.106Z" fill="#AEA9A3"/>
<path d="M487.964 135.66C523.571 135.66 559.232 135.66 594.838 135.66C595.614 135.66 595.669 134.385 594.838 134.385C559.232 134.385 523.571 134.385 487.964 134.385C487.189 134.441 487.189 135.66 487.964 135.66Z" fill="#AEA9A3"/>
<path d="M462.99 210.86C462.99 230.367 462.99 249.874 462.99 269.325C462.99 270.101 464.264 270.156 464.264 269.325C464.264 249.818 464.264 230.312 464.264 210.86C464.209 210.085 462.99 210.085 462.99 210.86Z" fill="#AEA9A3"/>
<path d="M463.599 270.6C502.251 270.6 540.958 270.6 579.61 270.6C590.685 270.6 601.705 270.6 612.78 270.6C613.555 270.6 613.61 269.325 612.78 269.325C574.128 269.325 535.421 269.325 496.769 269.325C485.694 269.325 474.674 269.325 463.599 269.325C462.824 269.325 462.824 270.6 463.599 270.6Z" fill="#AEA9A3"/>
<path d="M613.056 212.024C613.056 231.143 613.056 250.206 613.056 269.325C613.056 270.101 614.33 270.156 614.33 269.325C614.33 250.206 614.33 231.143 614.33 212.024C614.275 211.248 613.056 211.248 613.056 212.024Z" fill="#AEA9A3"/>
<path d="M464.319 247.879C464.098 244 467.752 241.561 471.241 243.556C471.518 243.723 471.906 243.612 472.072 243.335C473.013 241.672 472.902 240.121 473.124 238.292C473.345 236.685 473.899 235.188 475.727 234.967C476.613 234.856 477.499 235.299 478.385 235.133C479.658 234.856 480.157 234.08 480.766 232.972C481.873 230.811 482.538 228.871 484.531 227.319C489.46 223.329 494.997 227.43 496.769 232.528C498.43 237.405 497.212 242.947 497.157 247.99C497.157 248.433 497.544 248.655 497.932 248.599C505.795 246.992 509.948 257.355 503.082 261.622C502.639 261.899 502.694 262.62 503.248 262.786C506.072 263.673 509.838 266.166 507.623 269.658C507.18 270.323 508.287 270.988 508.675 270.267C511.333 266.111 507.235 262.731 503.58 261.567C503.636 261.955 503.691 262.343 503.746 262.731C507.18 260.569 508.952 256.247 507.401 252.368C505.851 248.488 501.531 246.604 497.6 247.436C497.877 247.657 498.098 247.823 498.375 248.045C498.43 242.337 499.925 236.02 497.267 230.644C495.495 226.987 491.785 223.828 487.466 224.604C485.528 224.936 483.811 226.1 482.482 227.541C480.821 229.314 479.88 233.692 477.388 234.025C475.394 234.302 474.121 233.415 472.792 235.41C471.297 237.627 472.238 240.508 470.964 242.836C471.241 242.781 471.518 242.67 471.795 242.614C467.586 240.231 462.713 243.113 462.99 248.045C463.101 248.71 464.375 248.71 464.319 247.879Z" fill="#AEA9A3"/>
<path d="M533.483 210.306C533.483 230.09 533.483 249.874 533.483 269.658C533.483 270.433 534.756 270.489 534.756 269.658C534.756 249.874 534.756 230.09 534.756 210.306C534.701 209.475 533.483 209.475 533.483 210.306Z" fill="#AEA9A3"/>
<path d="M537.304 210.583C537.304 230.256 537.304 249.985 537.304 269.657C537.304 270.433 538.577 270.489 538.577 269.657C538.577 249.985 538.577 230.256 538.577 210.583C538.522 209.807 537.304 209.752 537.304 210.583Z" fill="#AEA9A3"/>
<path d="M575.014 269.38C573.851 268.438 572.522 267.33 572.134 265.778C571.414 262.73 573.519 262.343 575.235 261.234C576.232 260.569 577.229 259.793 577.45 258.574C577.727 257.189 576.786 256.136 576.177 254.972C574.737 252.035 574.349 248.1 577.118 245.718C579.61 243.556 585.424 246.05 586.809 242.226C587.196 241.063 586.698 240.231 586.255 239.234C585.037 236.352 584.151 233.526 584.428 230.367C584.594 228.095 584.926 227.098 587.529 226.765C588.636 226.599 588.359 227.042 589.301 226.377C589.577 226.155 589.744 225.768 589.965 225.546C591.405 224.105 592.014 222.664 594.34 222.609C600.486 222.498 600.431 230.755 600.708 234.911C600.874 237.017 601.096 242.393 604.141 242.614C605.415 242.725 605.692 241.728 606.245 240.841C607.907 238.347 609.789 236.795 612.946 237.017C613.721 237.073 613.721 235.853 612.946 235.743C610.232 235.521 607.519 236.629 605.913 238.901C605.969 238.846 605.249 240.176 605.193 240.176C604.529 240.398 602.812 239.234 602.535 238.79C601.926 237.738 602.037 236.02 601.926 234.856C601.815 233.027 601.815 231.143 601.539 229.314C601.096 226.488 599.822 223.385 597.164 221.999C594.838 220.78 591.903 221.279 590.076 223.163C589.633 223.662 589.356 224.493 588.858 224.881C588.082 225.435 586.809 225.047 585.923 225.324C584.871 225.657 584.261 226.322 583.763 227.319C582.323 230.312 582.988 234.523 584.095 237.516C584.317 238.181 584.981 239.123 585.092 239.843C584.981 240.342 584.871 240.841 584.76 241.34C584.926 242.891 584.206 243.501 582.545 243.279C582.102 243.335 581.659 243.279 581.271 243.279C579.665 243.279 578.226 243.39 576.841 244.332C574.405 245.995 573.408 249.043 573.796 251.869C574.072 253.919 575.18 255.194 575.789 257.078C576.786 260.07 573.187 260.458 571.636 262.232C569.144 265.058 571.636 268.494 573.962 270.433C574.737 270.766 575.623 269.879 575.014 269.38Z" fill="#AEA9A3"/>
<path d="M239.497 207.148C239.497 205.263 239.497 203.435 239.497 201.55C239.497 200.775 238.223 200.719 238.223 201.55C238.223 203.435 238.223 205.263 238.223 207.148C238.223 207.979 239.497 207.979 239.497 207.148Z" fill="#AEA9A3"/>
<path d="M238.832 201.606C268.015 201.606 297.198 201.606 326.38 201.606C327.155 201.606 327.211 200.331 326.38 200.331C297.198 200.331 268.015 200.331 238.832 200.331C238.057 200.331 238.057 201.606 238.832 201.606Z" fill="#AEA9A3"/>
<path d="M240.715 208.09C269.289 208.09 297.862 208.09 326.436 208.09C327.211 208.09 327.266 206.815 326.436 206.815C297.862 206.815 269.289 206.815 240.715 206.815C239.885 206.815 239.885 208.09 240.715 208.09Z" fill="#AEA9A3"/>
<path d="M326.38 201.273C326.38 203.213 326.38 205.208 326.38 207.148C326.38 207.923 327.654 207.979 327.654 207.148C327.654 205.208 327.654 203.213 327.654 201.273C327.654 200.442 326.38 200.442 326.38 201.273Z" fill="#AEA9A3"/>
<path d="M245.422 200.775C245.422 178.553 245.422 156.331 245.422 134.108C245.422 133.333 244.148 133.277 244.148 134.108C244.148 156.331 244.148 178.553 244.148 200.775C244.148 201.606 245.422 201.606 245.422 200.775Z" fill="#AEA9A3"/>
<path d="M245.256 134.773C249.686 134.773 254.06 134.773 258.49 134.773C259.266 134.773 259.321 133.499 258.49 133.499C254.06 133.499 249.686 133.499 245.256 133.499C244.481 133.499 244.481 134.773 245.256 134.773Z" fill="#AEA9A3"/>
<path d="M257.383 135.051C257.383 156.885 257.383 178.719 257.383 200.553C257.383 201.329 258.657 201.384 258.657 200.553C258.657 178.719 258.657 156.885 258.657 135.051C258.657 134.275 257.383 134.275 257.383 135.051Z" fill="#AEA9A3"/>
<path d="M258.269 147.076C263.197 147.076 268.181 147.076 273.109 147.076C273.885 147.076 273.94 145.801 273.109 145.801C268.181 145.801 263.197 145.801 258.269 145.801C257.438 145.801 257.438 147.076 258.269 147.076Z" fill="#AEA9A3"/>
<path d="M272.002 146.688C272.002 164.255 272.002 181.822 272.002 199.389C272.002 200.165 273.276 200.22 273.276 199.389C273.276 181.822 273.276 164.255 273.276 146.688C273.276 145.857 272.002 145.857 272.002 146.688Z" fill="#AEA9A3"/>
<path d="M248.966 141.978C249.243 143.862 249.298 145.746 249.077 147.63C248.966 148.406 250.24 148.406 250.35 147.63C250.572 145.635 250.516 143.64 250.184 141.645C250.073 140.869 248.855 141.202 248.966 141.978Z" fill="#AEA9A3"/>
<path d="M251.569 141.756C251.956 143.695 252.067 145.635 252.067 147.63C252.067 148.406 253.285 148.406 253.341 147.63C253.396 145.524 253.174 143.474 252.787 141.423C252.621 140.648 251.458 140.98 251.569 141.756Z" fill="#AEA9A3"/>
<path d="M262.034 156.441C264.305 156.774 266.631 157.106 268.956 157.273C269.732 157.328 269.732 156.109 268.956 155.998C266.741 155.832 264.582 155.555 262.367 155.222C261.591 155.111 261.204 156.275 262.034 156.441Z" fill="#AEA9A3"/>
<path d="M264.305 160.321C265.855 160.21 267.406 160.099 268.956 160.043C269.732 159.988 269.732 158.769 268.956 158.769C267.406 158.88 265.855 158.99 264.305 159.046C263.474 159.157 263.474 160.376 264.305 160.321Z" fill="#AEA9A3"/>
<path d="M278.149 199.888C278.149 196.785 278.149 193.681 278.149 190.578C278.149 189.802 276.875 189.747 276.875 190.578C276.875 193.681 276.875 196.785 276.875 199.888C276.875 200.664 278.149 200.664 278.149 199.888Z" fill="#AEA9A3"/>
<path d="M278.204 191.409C292.048 191.409 305.892 191.409 319.735 191.409C320.511 191.409 320.566 190.135 319.735 190.135C305.892 190.135 292.048 190.135 278.204 190.135C277.429 190.19 277.429 191.409 278.204 191.409Z" fill="#AEA9A3"/>
<path d="M319.126 191.243C319.126 194.402 319.126 197.616 319.126 200.775C319.126 201.55 320.4 201.606 320.4 200.775C320.4 197.616 320.4 194.402 320.4 191.243C320.344 190.467 319.126 190.467 319.126 191.243Z" fill="#AEA9A3"/>
<path d="M286.51 190.135C286.51 188.029 286.51 185.978 286.51 183.872C286.51 183.097 285.236 183.041 285.236 183.872C285.236 185.978 285.236 188.029 285.236 190.135C285.236 190.91 286.51 190.91 286.51 190.135Z" fill="#AEA9A3"/>
<path d="M285.846 183.762C297.807 183.762 309.823 183.762 321.784 183.762C322.559 183.762 322.615 182.487 321.784 182.487C309.823 182.487 297.807 182.487 285.846 182.487C285.07 182.543 285.07 183.762 285.846 183.762Z" fill="#AEA9A3"/>
<path d="M321.452 183.152C321.452 185.868 321.452 188.583 321.452 191.298C321.452 192.074 322.725 192.13 322.725 191.298C322.725 188.583 322.725 185.868 322.725 183.152C322.67 182.321 321.452 182.321 321.452 183.152Z" fill="#AEA9A3"/>
<path d="M320.4 191.963C320.898 191.797 321.396 191.686 321.895 191.797C322.67 191.963 323.002 190.744 322.227 190.578C321.507 190.412 320.732 190.467 320.067 190.744C319.735 190.855 319.514 191.187 319.624 191.52C319.735 191.797 320.067 192.074 320.4 191.963Z" fill="#AEA9A3"/>
<path d="M293.875 183.762C294.595 185.978 294.816 188.306 294.484 190.633C294.373 191.409 295.592 191.742 295.702 190.966C296.09 188.417 295.869 185.923 295.093 183.429C294.816 182.653 293.654 182.986 293.875 183.762Z" fill="#AEA9A3"/>
<path d="M300.243 184.704C301.018 184.704 301.074 183.429 300.243 183.429C299.468 183.429 299.468 184.704 300.243 184.704Z" fill="#AEA9A3"/>
<path d="M300.631 183.485L300.575 183.429C300.575 183.706 300.575 184.039 300.575 184.316C300.631 184.26 300.631 184.26 300.686 184.205C300.409 184.26 300.188 184.26 299.911 184.316C299.745 184.094 299.745 184.205 299.911 184.648C299.966 184.926 300.022 185.147 300.022 185.424C300.077 185.978 300.077 186.533 300.077 187.087C300.022 188.251 299.8 189.303 299.413 190.412C299.136 191.188 300.354 191.52 300.631 190.744C301.185 189.248 301.406 187.696 301.351 186.145C301.295 185.258 301.351 183.762 300.52 183.208C300.299 183.097 299.911 183.097 299.745 183.318C299.689 183.374 299.689 183.374 299.634 183.429C299.413 183.706 299.357 184.039 299.634 184.316L299.689 184.371C300.354 184.926 301.24 184.039 300.631 183.485Z" fill="#AEA9A3"/>
<path d="M258.546 165.973C262.976 166.97 267.406 167.137 271.946 166.472C272.722 166.361 272.389 165.142 271.614 165.253C267.35 165.862 263.086 165.696 258.878 164.754C258.047 164.588 257.715 165.807 258.546 165.973Z" fill="#AEA9A3"/>
<path d="M237.448 112.828C270.396 112.828 303.344 112.828 336.348 112.828C337.123 112.828 337.178 111.554 336.348 111.554C303.4 111.554 270.451 111.554 237.448 111.554C236.673 111.554 236.673 112.828 237.448 112.828Z" fill="#AEA9A3"/>
<path d="M238.057 111.886C238.057 110.612 238.057 109.282 238.057 108.007C238.057 107.231 236.783 107.176 236.783 108.007C236.783 109.282 236.783 110.612 236.783 111.886C236.839 112.718 238.057 112.718 238.057 111.886Z" fill="#AEA9A3"/>
<path d="M237.171 108.34C270.119 108.34 303.067 108.34 336.071 108.34C336.846 108.34 336.901 107.065 336.071 107.065C303.123 107.065 270.175 107.065 237.171 107.065C236.341 107.12 236.341 108.34 237.171 108.34Z" fill="#AEA9A3"/>
<path d="M335.683 108.007C335.794 109.171 335.905 110.39 336.071 111.554C336.126 112.33 337.4 112.33 337.344 111.554C337.234 110.39 337.123 109.171 336.957 108.007C336.846 107.231 335.628 107.231 335.683 108.007Z" fill="#AEA9A3"/>
<path d="M245.422 106.788C245.422 96.425 245.422 86.1175 245.422 75.7546C245.422 74.9787 244.148 74.9233 244.148 75.7546C244.148 86.1175 244.148 96.425 244.148 106.788C244.148 107.564 245.422 107.564 245.422 106.788Z" fill="#AEA9A3"/>
<path d="M244.757 76.0871C247.083 76.0871 249.464 76.0871 251.79 76.0871C252.565 76.0871 252.621 74.8125 251.79 74.8125C249.464 74.8125 247.083 74.8125 244.757 74.8125C243.982 74.8679 243.982 76.0871 244.757 76.0871Z" fill="#AEA9A3"/>
<path d="M251.07 76.0872C251.07 86.2838 251.07 96.5359 251.07 106.733C251.07 107.508 252.344 107.564 252.344 106.733C252.344 96.5359 252.344 86.2838 252.344 76.0872C252.288 75.2559 251.07 75.2559 251.07 76.0872Z" fill="#AEA9A3"/>
<path d="M256.497 106.566C256.497 88.6114 256.497 70.7118 256.497 52.7568C256.497 51.9809 255.223 51.9255 255.223 52.7568C255.223 70.7118 255.223 88.6114 255.223 106.566C255.223 107.342 256.497 107.342 256.497 106.566Z" fill="#AEA9A3"/>
<path d="M256.054 52.4796C260.373 52.4796 264.637 52.4796 268.956 52.4796C269.732 52.4796 269.787 51.2051 268.956 51.2051C264.637 51.2051 260.373 51.2051 256.054 51.2051C255.223 51.2605 255.223 52.4796 256.054 52.4796Z" fill="#AEA9A3"/>
<path d="M268.458 52.0367C268.458 70.2134 268.458 88.39 268.458 106.567C268.458 107.343 269.732 107.398 269.732 106.567C269.732 88.39 269.732 70.2134 269.732 52.0367C269.732 51.2609 268.458 51.2609 268.458 52.0367Z" fill="#AEA9A3"/>
<path d="M255.722 62.2884C260.041 64.7267 264.692 63.6738 269.122 62.0667C269.898 61.7896 269.565 60.5705 268.79 60.8476C264.692 62.2884 260.373 63.4522 256.331 61.1801C255.611 60.7921 255.002 61.9005 255.722 62.2884Z" fill="#AEA9A3"/>
<path d="M256.608 72.0417C258.214 73.0392 260.041 72.9284 261.868 72.8729C264.249 72.8729 266.575 72.6513 268.901 72.0971C269.676 71.8754 269.344 70.7117 268.569 70.8779C266.631 71.3767 264.692 71.5429 262.754 71.5983C260.982 71.6538 258.767 71.9309 257.217 70.9333C256.552 70.5454 255.943 71.5984 256.608 72.0417Z" fill="#AEA9A3"/>
<path d="M276.653 106.899C276.653 105.624 276.653 104.35 276.653 103.075C276.653 102.299 275.38 102.244 275.38 103.075C275.38 104.35 275.38 105.624 275.38 106.899C275.435 107.675 276.653 107.73 276.653 106.899Z" fill="#AEA9A3"/>
<path d="M276.377 103.518C289.445 103.518 302.458 103.518 315.527 103.518C316.302 103.518 316.357 102.244 315.527 102.244C302.458 102.244 289.445 102.244 276.377 102.244C275.601 102.244 275.601 103.518 276.377 103.518Z" fill="#AEA9A3"/>
<path d="M315.25 103.075C315.25 104.571 315.25 106.068 315.25 107.619C315.25 108.395 316.523 108.45 316.523 107.619C316.523 106.123 316.523 104.627 316.523 103.075C316.523 102.244 315.25 102.244 315.25 103.075Z" fill="#AEA9A3"/>
<path d="M282.911 98.6971C283.022 100.027 283.132 101.357 283.299 102.687C283.354 103.463 284.628 103.463 284.572 102.687C284.461 101.357 284.351 100.027 284.184 98.6971C284.074 97.9213 282.8 97.9213 282.911 98.6971Z" fill="#AEA9A3"/>
<path d="M283.52 98.9742C294.429 98.9742 305.338 98.9742 316.247 98.9742C317.022 98.9742 317.077 97.6996 316.247 97.6996C305.338 97.6996 294.429 97.6996 283.52 97.6996C282.745 97.755 282.745 98.9742 283.52 98.9742Z" fill="#AEA9A3"/>
<path d="M315.25 99.2514C315.25 100.304 315.25 101.357 315.25 102.41C315.25 103.186 316.523 103.241 316.523 102.41C316.523 101.357 316.523 100.304 316.523 99.2514C316.523 98.4201 315.25 98.4201 315.25 99.2514Z" fill="#AEA9A3"/>
<path d="M298.084 97.8659C298.084 95.8709 298.084 93.9313 298.084 91.9363C298.084 91.1605 296.81 91.1051 296.81 91.9363C296.81 93.9313 296.81 95.8709 296.81 97.8659C296.81 98.6418 298.084 98.6418 298.084 97.8659Z" fill="#AEA9A3"/>
<path d="M297.474 92.2134C301.849 92.2134 306.168 92.2134 310.543 92.2134C311.318 92.2134 311.374 90.9388 310.543 90.9388C306.168 90.9388 301.849 90.9388 297.474 90.9388C296.644 90.9388 296.644 92.2134 297.474 92.2134Z" fill="#AEA9A3"/>
<path d="M309.878 91.9363C309.878 94.0421 309.878 96.0926 309.878 98.1984C309.878 98.9742 311.152 99.0296 311.152 98.1984C311.152 96.0926 311.152 94.0421 311.152 91.9363C311.152 91.1051 309.878 91.1051 309.878 91.9363Z" fill="#AEA9A3"/>
<path d="M300.299 90.4954C297.142 87.3367 297.031 81.13 297.031 76.9738C296.699 77.14 296.312 77.2509 295.979 77.4171C299.689 81.4071 302.071 86.1729 302.957 91.5484C303.067 92.3242 304.286 91.9917 304.175 91.2159C303.233 85.6188 300.742 80.6867 296.865 76.5304C296.478 76.1425 295.813 76.4196 295.813 76.9738C295.758 81.5179 296.035 87.9463 299.468 91.3821C299.966 91.9363 300.852 91.105 300.299 90.4954Z" fill="#AEA9A3"/>
<path d="M303.621 88.7775C304.729 83.4021 308.771 79.3567 310.432 74.2029C310.045 74.0921 309.657 73.9812 309.214 73.8704C308.716 76.2533 309.325 78.7471 309.103 81.1854C308.771 84.6213 307.774 87.9463 306.224 91.0496C305.836 91.77 306.944 92.3796 307.276 91.6592C308.605 88.9992 309.602 86.2283 310.1 83.2913C310.598 80.2987 309.823 77.0846 310.432 74.2029C310.598 73.4271 309.491 73.0946 309.214 73.8704C307.553 79.0242 303.566 83.0696 302.403 88.445C302.237 89.2208 303.455 89.5533 303.621 88.7775Z" fill="#AEA9A3"/>
<path d="M373.615 260.569C390.726 260.569 407.892 260.569 425.003 260.569C425.778 260.569 425.834 259.295 425.003 259.295C407.892 259.295 390.726 259.295 373.615 259.295C372.84 259.35 372.84 260.569 373.615 260.569Z" fill="#AEA9A3"/>
<path d="M399.143 260.569C399.143 265.446 399.143 270.323 399.143 275.199C399.143 275.975 400.417 276.031 400.417 275.199C400.417 270.323 400.417 265.446 400.417 260.569C400.417 259.793 399.143 259.793 399.143 260.569Z" fill="#AEA9A3"/>
<path d="M392.609 276.141C405.456 276.141 418.358 276.141 431.205 276.141C431.98 276.141 432.036 274.867 431.205 274.867C418.358 274.867 405.456 274.867 392.609 274.867C391.833 274.922 391.833 276.141 392.609 276.141Z" fill="#AEA9A3"/>
<path d="M418.136 276.474C418.136 281.018 418.136 285.618 418.136 290.162C418.136 290.938 419.41 290.993 419.41 290.162C419.41 285.618 419.41 281.018 419.41 276.474C419.41 275.698 418.136 275.643 418.136 276.474Z" fill="#AEA9A3"/>
<path d="M535.088 440.673C552.421 440.673 569.809 440.673 587.141 440.673C587.916 440.673 587.972 439.399 587.141 439.399C569.809 439.399 552.421 439.399 535.088 439.399C534.258 439.399 534.258 440.673 535.088 440.673Z" fill="#AEA9A3"/>
<path d="M563.219 439.565C563.219 434.079 563.219 428.593 563.219 423.106C563.219 422.331 561.945 422.275 561.945 423.106C561.945 428.593 561.945 434.079 561.945 439.565C562.001 440.396 563.219 440.396 563.219 439.565Z" fill="#AEA9A3"/>
<path d="M550.594 423.162C565.379 423.162 580.164 423.162 594.949 423.162C595.724 423.162 595.78 421.887 594.949 421.887C580.164 421.887 565.379 421.887 550.594 421.887C549.763 421.887 549.763 423.162 550.594 423.162Z" fill="#AEA9A3"/>
<path d="M589.356 422.552C589.356 417.676 589.356 412.743 589.356 407.867C589.356 407.091 588.082 407.036 588.082 407.867C588.082 412.743 588.082 417.676 588.082 422.552C588.138 423.328 589.356 423.328 589.356 422.552Z" fill="#AEA9A3"/>
<path d="M652.484 238.181C652.484 249.541 652.484 260.957 652.484 272.318C652.484 273.093 653.757 273.149 653.757 272.318C653.757 260.957 653.757 249.541 653.757 238.181C653.757 237.405 652.484 237.405 652.484 238.181Z" fill="#AEA9A3"/>
<path d="M654.145 238.292C672.474 238.292 690.748 238.292 709.077 238.292C709.852 238.292 709.907 237.017 709.077 237.017C690.748 237.017 672.474 237.017 654.145 237.017C653.314 237.017 653.314 238.292 654.145 238.292Z" fill="#AEA9A3"/>
<path d="M707.969 237.848C707.969 248.71 707.969 259.627 707.969 270.489C707.969 271.265 709.243 271.32 709.243 270.489C709.243 259.627 709.243 248.71 709.243 237.848C709.243 237.073 707.969 237.073 707.969 237.848Z" fill="#AEA9A3"/>
<path d="M653.702 273.093C672.252 273.093 690.748 273.093 709.298 273.093C710.073 273.093 710.129 271.819 709.298 271.819C690.748 271.819 672.252 271.819 653.702 271.819C652.871 271.874 652.871 273.093 653.702 273.093Z" fill="#AEA9A3"/>
<path d="M708.191 270.544C707.914 271.32 707.914 272.096 708.025 272.927C708.08 273.26 708.468 273.426 708.8 273.37C709.132 273.26 709.298 272.927 709.243 272.595C709.132 272.04 709.243 271.431 709.409 270.877C709.631 270.101 708.468 269.768 708.191 270.544Z" fill="#AEA9A3"/>
<path d="M655.086 240.065C655.086 249.763 655.086 259.405 655.086 269.103C655.086 269.879 656.36 269.935 656.36 269.103C656.36 259.405 656.36 249.763 656.36 240.065C656.304 239.289 655.086 239.289 655.086 240.065Z" fill="#AEA9A3"/>
<path d="M655.695 270.655C672.363 270.655 689.031 270.655 705.699 270.655C706.474 270.655 706.529 269.38 705.699 269.38C689.031 269.38 672.363 269.38 655.695 269.38C654.865 269.436 654.865 270.655 655.695 270.655Z" fill="#AEA9A3"/>
<path d="M706.807 269.824C706.807 260.292 706.807 250.76 706.807 241.229C706.807 240.453 705.533 240.398 705.533 241.229C705.533 250.76 705.533 260.292 705.533 269.824C705.533 270.6 706.807 270.6 706.807 269.824Z" fill="#AEA9A3"/>
<path d="M655.917 240.952C672.585 240.952 689.253 240.952 705.921 240.952C706.696 240.952 706.751 239.677 705.921 239.677C689.253 239.677 672.585 239.677 655.917 239.677C655.142 239.677 655.086 240.952 655.917 240.952Z" fill="#AEA9A3"/>
<path d="M656.083 257.854C662.672 256.302 669.705 258.519 676.184 259.793C682.774 261.068 689.308 262.343 695.897 263.617C696.673 263.783 697.005 262.564 696.23 262.398C688.92 260.957 681.666 259.572 674.357 258.131C668.265 256.912 661.897 255.194 655.695 256.635C654.975 256.856 655.308 258.076 656.083 257.854Z" fill="#AEA9A3"/>
<path d="M680.06 260.403C681.389 261.179 682.829 260.736 684.269 260.458C686.65 260.015 688.976 259.35 691.301 258.63C696.341 257.133 701.38 255.471 706.64 255.028C707.416 254.972 707.416 253.698 706.64 253.753C702.376 254.085 698.279 255.194 694.236 256.413C692.077 257.078 689.917 257.743 687.702 258.353C685.93 258.851 682.331 260.292 680.669 259.295C680.005 258.907 679.396 260.015 680.06 260.403Z" fill="#AEA9A3"/>
<path d="M683.05 250.982C680.282 248.987 685.099 245.163 686.982 248.1C687.813 249.43 687.037 250.871 685.653 251.37C684.435 251.758 683.106 251.315 682.054 250.705C681.334 250.317 680.725 251.37 681.445 251.758C683.327 252.811 685.764 253.31 687.536 251.703C689.086 250.317 688.92 247.879 687.314 246.604C683.715 243.722 678.454 249.209 682.441 252.035C683.05 252.478 683.66 251.425 683.05 250.982Z" fill="#AEA9A3"/>
<path d="M454.075 552.116C499.593 552.116 545.111 552.116 590.574 552.116C591.35 552.116 591.405 550.842 590.574 550.842C545.056 550.842 499.538 550.842 454.075 550.842C453.3 550.897 453.3 552.116 454.075 552.116Z" fill="#AEA9A3"/>
<path d="M528.886 564.031C564.88 564.031 600.929 564.031 636.923 564.031C637.698 564.031 637.754 562.756 636.923 562.756C600.929 562.756 564.88 562.756 528.886 562.756C528.056 562.756 528.056 564.031 528.886 564.031Z" fill="#AEA9A3"/>
<path d="M527.668 539.038C560.727 539.038 593.731 539.038 626.79 539.038C627.565 539.038 627.62 537.763 626.79 537.763C593.731 537.763 560.727 537.763 527.668 537.763C526.893 537.819 526.893 539.038 527.668 539.038Z" fill="#AEA9A3"/>
<path d="M564.161 539.315C561.89 543.471 559.398 547.406 556.574 551.23C556.076 551.895 557.183 552.504 557.626 551.839C560.395 548.015 562.942 544.081 565.213 539.925C565.6 539.26 564.548 538.65 564.161 539.315Z" fill="#AEA9A3"/>
<path d="M589.522 553.059C588.636 556.328 587.529 559.487 586.089 562.59C585.757 563.311 586.809 563.92 587.141 563.2C588.636 560.041 589.799 556.771 590.685 553.391C590.962 552.615 589.744 552.283 589.522 553.059Z" fill="#AEA9A3"/>
<path d="M141.926 520.252C158.317 520.252 174.763 520.252 191.154 520.252C192.207 520.252 192.207 518.589 191.154 518.589C174.763 518.589 158.317 518.589 141.926 518.589C140.874 518.589 140.874 520.252 141.926 520.252Z" fill="#AEA9A3"/>
<path d="M162.858 535.769C190.988 535.769 219.063 535.769 247.194 535.769C248.246 535.769 248.246 534.106 247.194 534.106C219.063 534.106 190.988 534.106 162.858 534.106C161.806 534.106 161.806 535.769 162.858 535.769Z" fill="#AEA9A3"/>
<path d="M190.379 519.753C186.005 524.297 181.63 528.786 177.311 533.33C176.591 534.106 177.754 535.27 178.474 534.494C182.848 529.95 187.223 525.461 191.542 520.917C192.317 520.141 191.154 518.977 190.379 519.753Z" fill="#AEA9A3"/>
<path d="M230.526 562.479C273.22 562.479 315.859 562.479 358.553 562.479C359.605 562.479 359.605 560.817 358.553 560.817C315.859 560.817 273.22 560.817 230.526 560.817C229.474 560.817 229.474 562.479 230.526 562.479Z" fill="#AEA9A3"/>
<path d="M293.709 549.124C324.387 549.124 355.12 549.124 385.798 549.124C386.85 549.124 386.85 547.461 385.798 547.461C355.12 547.461 324.387 547.461 293.709 547.461C292.601 547.461 292.601 549.124 293.709 549.124Z" fill="#AEA9A3"/>
<path d="M338.452 547.849C333.967 552.283 329.537 556.716 325.051 561.149C324.276 561.925 325.439 563.089 326.214 562.313C330.699 557.88 335.129 553.446 339.615 549.013C340.39 548.293 339.172 547.129 338.452 547.849Z" fill="#AEA9A3"/>
<path d="M222.441 577.552C242.542 577.552 262.588 577.552 282.689 577.552C283.741 577.552 283.741 575.89 282.689 575.89C262.588 575.89 242.542 575.89 222.441 575.89C221.389 575.89 221.389 577.552 222.441 577.552Z" fill="#AEA9A3"/>
<path d="M288.393 561.426C286.178 566.469 283.908 571.512 281.693 576.5C281.25 577.442 282.689 578.328 283.132 577.331C285.347 572.288 287.618 567.245 289.833 562.257C290.276 561.26 288.836 560.429 288.393 561.426Z" fill="#AEA9A3"/>
<path d="M399.309 526.458C335.074 526.791 317.354 526.126 249.298 526.458C239.497 526.514 231.467 526.569 226.041 526.569C240.272 514.156 254.503 501.798 268.735 489.385C273.608 489.274 280.807 489.163 289.611 489.107C320.898 488.83 339.892 489.163 363.26 489.385C384.247 489.551 381.811 489.274 423.508 489.107C515.873 488.83 523.571 490.327 562.167 489.385C569.421 489.218 591.46 488.609 621.141 488.886C628.451 488.941 634.376 489.052 638.031 489.163C638.861 488.941 641.519 488.055 643.347 485.395C643.845 484.674 644.953 482.956 644.842 480.573C644.676 476.528 640.91 474.2 640.578 474.034C648.829 476.916 655.585 479.354 660.236 481.072C685.044 490.327 704.868 499.083 719.986 505.788C724.083 507.617 727.461 509.113 729.565 510.055C730.23 509.944 733.22 509.445 735.878 511.33C736.321 511.662 739.145 513.657 738.924 516.372C738.702 518.755 736.21 520.141 734.882 520.917C731.78 522.69 728.68 522.69 728.07 522.69C720.041 522.745 719.598 525.516 700.106 526.735C689.419 527.4 685.155 526.846 669.871 526.458C662.285 526.292 661.122 526.403 636.591 526.458C636.591 526.458 607.131 526.569 561.724 526.458C536.03 526.403 527.17 526.292 507.512 526.181C478.385 526.07 451.638 526.237 399.309 526.458Z" fill="#3E7474"/>
<path d="M267.96 488.609C253.451 501.133 238.943 513.657 224.435 526.181C223.604 526.902 224.822 528.065 225.598 527.345C240.106 514.821 254.614 502.297 269.122 489.772C269.953 489.107 268.79 487.944 267.96 488.609Z" fill="#252525"/>
<path d="M269.012 490.05C317.188 490.05 365.364 490.05 413.485 490.05C461.44 490.05 509.45 490.05 557.405 490.05C584.538 490.05 611.672 490.05 638.806 490.05C639.858 490.05 639.858 488.387 638.806 488.387C590.63 488.387 542.453 488.387 494.333 488.387C446.378 488.387 398.368 488.387 350.413 488.387C323.279 488.387 296.145 488.387 269.012 488.387C267.96 488.387 267.96 490.05 269.012 490.05Z" fill="#252525"/>
<path d="M225.764 527.29C285.846 527.29 345.872 527.29 405.954 527.29C465.814 527.29 525.73 527.29 585.59 527.29C619.314 527.29 653.037 527.29 686.761 527.29C687.813 527.29 687.813 525.627 686.761 525.627C626.679 525.627 566.652 525.627 506.57 525.627C446.71 525.627 386.794 525.627 326.934 525.627C293.211 525.627 259.487 525.627 225.764 525.627C224.656 525.627 224.656 527.29 225.764 527.29Z" fill="#252525"/>
<path d="M634.376 471.707C638.751 471.707 642.738 474.256 643.79 478.634C644.786 482.901 642.461 487.057 638.308 488.498C637.311 488.83 637.754 490.438 638.751 490.105C643.402 488.443 646.337 483.954 645.506 478.966C644.62 473.48 639.747 469.989 634.321 469.989C633.324 470.044 633.324 471.707 634.376 471.707Z" fill="#252525"/>
<path d="M634.819 471.984C666.161 483.954 697.282 496.645 728.126 510C729.123 510.443 729.953 509.003 728.956 508.559C698.002 495.148 666.77 482.458 635.262 470.377C634.21 469.989 633.822 471.596 634.819 471.984Z" fill="#252525"/>
<path d="M729.067 510.554C731.891 510.443 735.435 511.219 737.263 513.602C740.087 517.259 735.934 519.698 732.944 520.584C728.015 522.08 722.533 522.579 717.438 523.41C711.79 524.297 706.142 525.018 700.438 525.295C695.233 525.572 689.972 525.239 684.767 525.516C683.715 525.572 683.715 527.234 684.767 527.179C692.132 526.735 699.497 527.179 706.917 526.458C714.171 525.738 721.425 524.463 728.624 523.244C732.501 522.579 739.478 521.471 739.921 516.372C740.419 511.108 733.165 508.78 729.067 508.947C728.015 508.947 728.015 510.609 729.067 510.554Z" fill="#252525"/>
<path d="M329.315 374.949C318.406 383.76 322.449 402.159 326.159 444.275C327.931 464.503 329.094 483.621 329.758 501.465C325.66 503.848 317.409 509.002 318.295 511.44C319.348 514.378 333.191 511.828 337.068 511.108C347.976 511.108 356.781 512.105 363.094 513.158C368.188 513.99 373.615 515.153 374.335 513.602C374.944 512.272 371.898 509.556 368.963 507.284C363.426 504.125 357.889 500.967 352.296 497.808C350.69 481.793 350.468 468.77 350.524 460.014C350.69 431.363 352.794 409.141 352.794 409.141C354.954 386.032 357.335 377.609 351.908 373.12C346.537 368.798 335.849 369.685 329.315 374.949Z" fill="#FFF7F3" stroke="#252525" stroke-width="1.02" stroke-miterlimit="10"/>
<path d="M332.25 512.715C335.683 511.939 338.84 510.554 341.774 508.669C342.217 508.392 341.83 507.672 341.331 507.949C338.452 509.833 335.351 511.163 332.028 511.939C331.53 511.995 331.752 512.826 332.25 512.715Z" fill="#252525"/>
<path d="M336.846 511.662C339.061 511.052 340.999 509.057 343.214 509.39C346.37 509.833 349.638 511.163 352.683 512.05C353.182 512.216 353.403 511.385 352.905 511.274C349.582 510.332 346.26 509.39 342.937 508.503C342.439 508.337 342.051 508.171 341.553 508.282C341.165 508.392 340.113 509.39 339.559 509.722C338.618 510.277 337.621 510.609 336.569 510.886C336.071 510.997 336.292 511.773 336.846 511.662Z" fill="#252525"/>
<path d="M339.006 510.997C340.999 510.554 342.882 510.554 344.931 510.997C346.426 511.33 347.755 511.662 349.25 511.496C349.748 511.44 349.804 510.609 349.25 510.665C347.257 510.886 345.485 510.166 343.546 509.944C341.941 509.778 340.335 509.889 338.729 510.221C338.286 510.332 338.507 511.108 339.006 510.997Z" fill="#252525"/>
<path d="M340.002 510.11C343.27 510.11 346.481 510.498 349.693 511.33C350.191 511.44 350.413 510.665 349.915 510.554C346.647 509.667 343.38 509.279 340.002 509.279C339.449 509.279 339.449 510.11 340.002 510.11Z" fill="#252525"/>
<path opacity="0.11" d="M335.019 372.788C337.787 374.45 334.686 384.148 333.745 387.252C330.866 397.06 331.419 410.471 332.471 437.348C333.081 452.145 335.019 472.815 340.944 497.808C359.993 506.619 369.241 511.884 368.631 513.546C368.078 515.098 359.162 513.657 341.885 509.113C339.504 510.166 335.849 511.551 331.198 512.272C330.312 512.383 319.624 513.99 318.628 511.33C317.631 508.67 326.657 502.962 329.98 500.911C329.094 487.113 328.318 475.42 327.765 466.553C326.712 449.983 326.657 448.155 326.214 443.223C324.497 424.215 323.168 422.829 322.449 409.862C321.009 383.76 325.826 377.554 329.038 374.894C329.813 374.395 333.247 371.735 335.019 372.788Z" fill="#6D6C6C"/>
<path opacity="0.19" d="M322.449 393.902C327.986 444.885 332.416 482.735 334.077 494.04C334.243 495.259 334.631 497.808 336.292 500.634C341.221 509.279 352.517 511.773 359.882 512.604C349.748 510 343.934 510.055 340.39 510.72C339.892 510.831 338.563 511.052 336.625 511.33C334.354 511.662 330.644 512.216 325.937 512.272C323.833 512.327 321.009 512.272 317.742 511.939C317.963 511.33 318.351 510.387 319.015 509.445C320.067 507.838 321.341 506.896 323.722 505.345C325.383 504.236 327.543 502.962 330.035 501.576C327.488 465.722 324.996 429.812 322.449 393.902Z" fill="#6D6C6C"/>
<path d="M514.212 491.934C521.356 491.712 528.665 491.38 536.03 490.992C540.681 490.77 545.222 490.493 549.818 490.16C553.196 488.553 556.629 487.002 560.007 485.395C562.222 487.778 565.766 491.213 570.584 494.594C588.027 506.841 605.858 506.73 605.747 509.778C605.636 511.828 597.441 513.435 591.073 513.879C575.069 514.987 562.167 509.556 554.747 505.511C542.564 507.561 530.382 509.556 518.199 511.607C516.87 505.068 515.541 498.528 514.212 491.934Z" fill="#252525"/>
<path d="M457.124 366.304C445.439 378.219 441.895 396.95 447.765 414.572C440.068 442.835 432.316 471.042 424.619 499.304C424.176 500.69 422.736 505.677 425.117 510.609C427.941 516.428 434.863 519.864 442.338 518.977C470.912 518.146 499.43 517.315 528.004 516.539C529.831 503.738 531.603 490.936 533.43 478.135C516.873 479.299 500.261 480.407 483.704 481.571C490.349 466.996 499.762 445.051 509.287 417.509C523.02 377.997 522.134 369.851 518.147 364.309C508.124 350.4 475.12 347.961 457.124 366.304Z" fill="#FF6C6D"/>
<path opacity="0.25" d="M456.955 392.018C455.792 388.748 452.635 380.047 449.756 380.38C446.544 380.712 444.495 392.184 445.16 401.494C445.603 407.035 446.932 411.524 448.095 414.517C447.264 417.343 445.88 422.22 444.163 428.26C430.43 476.971 431.98 472.316 430.375 478.246C427.717 487.888 425.557 495.702 424.173 500.579C423.84 501.909 423.065 505.4 424.56 509.39C426.111 513.546 429.156 515.652 430.375 516.483C431.261 517.093 433.808 518.756 437.296 519.143C437.961 519.199 438.238 519.199 442.169 519.033C443.997 518.977 445.88 518.922 447.707 518.866C452.968 518.645 458.671 518.589 460.609 518.589C465.316 518.534 480.877 518.091 527.89 516.483C528.887 509.944 529.883 503.35 530.825 496.811C468.306 515.818 447.762 511.053 441.671 501.687C429.046 482.125 469.857 427.928 456.955 392.018Z" fill="#6D6C6C"/>
<path opacity="0.3" d="M425.391 496.866C431.205 475.42 437.019 453.918 442.778 432.472C441.449 438.013 430.208 486.392 436.521 504.015C436.964 505.345 438.127 508.448 440.896 511.33C448.427 519.143 460.831 518.146 465.261 517.592C457.564 518.423 450.919 518.866 445.658 519.032C439.013 519.31 435.358 519.199 431.537 517.037C430.319 516.372 427.218 514.544 425.28 510.775C422.124 504.458 424.948 497.863 425.391 496.866Z" fill="#6D6C6C"/>
<path d="M649.493 336.157C656.083 333.331 662.728 330.394 669.484 327.346C673.692 325.407 677.901 323.522 681.999 321.583C684.601 318.867 687.204 316.152 689.806 313.437C692.741 314.877 697.282 316.762 702.986 318.203C723.696 323.245 740.253 316.651 741.25 319.532C741.914 321.472 734.826 325.961 729.067 328.676C714.559 335.492 700.605 335.16 692.132 334.107C681.5 340.425 670.924 346.742 660.292 353.06C656.692 347.462 653.093 341.81 649.493 336.157Z" fill="#252525"/>
<path d="M455.127 355.997C457.287 355.221 460.665 354.057 464.984 353.06C490.844 347.019 508.398 356.385 530.935 359.488C550.87 362.259 566.154 358.934 582.157 355.553C598.105 352.117 624.132 344.137 652.539 323.024C655.363 324.742 661.177 328.787 665.331 336.324C670.037 344.802 669.982 352.782 669.761 356.052C656.858 366.027 637.422 379.161 611.672 390.022C595.226 397.005 581.493 400.385 554.082 407.257C523.958 414.794 503.469 419.781 475.782 420.058C461.606 420.225 449.977 419.061 442.28 418.063C446.599 397.337 450.863 376.667 455.127 355.997Z" fill="#FF6C6D"/>
<path opacity="0.13" d="M442.28 417.842C447.43 418.617 454.352 419.504 462.492 419.892C468.583 420.225 479.769 420.612 496.437 418.728C512.772 416.9 526.062 413.852 551.867 407.756C566.542 404.32 574.128 402.547 583.597 399.61C592.9 396.728 604.252 393.237 618.483 386.753C622.36 384.98 637.92 377.775 656.803 365.196C662.063 361.705 666.327 358.601 669.373 356.329C669.65 354.39 669.816 351.73 669.484 348.626C669.041 345.08 668.099 342.253 667.213 340.314C610.731 373.453 540.128 399.222 462.27 391.242C457.564 390.743 452.912 390.189 448.316 389.468C446.378 398.945 444.329 408.365 442.28 417.842Z" fill="#6D6C6C"/>
<path opacity="0.11" d="M442.446 417.675C443.443 413.02 444.495 408.365 445.492 403.71C465.039 406.315 487.743 407.645 512.828 405.982C583.099 401.327 637.145 375.614 669.373 356.44C660.513 363.145 647.334 372.289 630.334 381.156C601.428 396.174 578.392 401.549 537.913 411.025C502.528 419.282 485.473 420.169 472.626 420.058C460.222 419.837 449.811 418.728 442.446 417.675Z" fill="#6D6C6C"/>
<path d="M317.354 332.888C303.621 336.601 293.1 364.475 299.247 385.811C305.504 407.59 327.322 416.235 344.488 423.051C377.104 435.963 407.671 430.033 422.677 427.096C433.642 424.99 442.502 422.109 448.593 419.892C451.805 417.01 461.274 407.7 464.652 391.63C468.694 372.455 461.108 357.327 459.28 353.946C429.765 365.418 407.283 363.921 394.27 361.594C364.589 356.218 342.827 344.082 342.827 344.082C329.038 336.379 324.442 330.948 317.354 332.888Z" fill="white" stroke="#252525" stroke-width="1.02" stroke-miterlimit="10"/>
<path opacity="0.13" d="M300.963 354.999C300.575 367.191 334.077 377.831 336.015 378.496C347.589 382.375 365.586 386.642 410.661 384.703C424.283 384.148 443.055 382.874 465.482 379.881C465.537 376.612 465.371 372.456 464.375 367.69C463.156 362.093 461.218 357.604 459.557 354.39C456.234 355.443 451.528 356.883 445.824 358.491C440.84 359.876 437.573 360.763 433.808 361.538C433.808 361.538 424.615 363.423 414.316 363.589C399.42 363.811 386.96 360.153 374.335 356.385C361.377 352.561 346.094 346.687 339.006 341.755C336.791 340.203 334.853 339.095 331.032 336.823C324.774 333.165 323.168 332.722 321.563 332.555C317.354 332.168 313.976 334.273 312.315 335.382C307.22 338.596 305.061 343.362 303.566 346.687C303.012 347.906 301.018 352.173 300.963 354.999Z" fill="#6D6C6C"/>
<path opacity="0.15" d="M315.859 333.498C324.996 340.647 338.009 349.624 354.898 357.66C363.758 361.871 378.045 368.521 396.762 372.234C410.052 374.839 434.195 377.721 464.596 370.073C464.264 367.413 463.544 364.144 462.104 360.541C461.163 358.214 460.111 356.164 459.114 354.501C445.547 360.375 433.642 362.536 425.612 363.368C405.843 365.474 390.504 361.761 381.368 359.489C373.227 357.438 363.094 354.944 351.908 348.738C347.81 346.521 340.778 342.199 328.983 336.158C326.214 334.717 323.888 333.554 322.282 332.833C320.067 333.055 317.963 333.276 315.859 333.498Z" fill="#6D6C6C"/>
<path d="M397.205 336.379C400.583 334.273 403.407 333.886 409.443 332.943C425.003 330.45 423.508 330.339 426.443 330.228C433.475 329.951 438.238 329.729 443.332 332.611C444.938 333.498 448.925 335.825 451.195 340.702C451.583 341.533 454.352 347.629 452.137 352.727C449.7 358.324 439.733 359.765 419.798 362.702C417.029 363.09 409.166 364.199 399.475 362.481C393.163 361.372 391.335 359.931 390.228 358.546C386.739 354.168 388.234 346.908 390.947 342.475C392.996 339.039 395.765 337.266 397.205 336.379Z" fill="#252525"/>
<path d="M448.316 344.858C448.925 343.639 452.691 343.916 455.349 345.468C457.951 346.964 460.111 350.067 460.111 353.337C460.056 356.883 457.508 359.377 453.798 362.979C448.98 367.69 445.436 368.964 445.824 370.461C446.378 372.733 454.463 371.181 455.681 374.284C456.733 376.944 452.248 381.599 450.919 381.045C450.033 380.657 451.14 378.33 449.756 376.778C447.928 374.783 444.55 376.778 442.834 375.005C441.449 373.508 442.059 370.461 442.945 368.576C444.163 366.138 445.713 366.083 450.42 361.926C454.02 358.768 454.407 357.659 454.463 356.828C454.518 356.052 454.352 355.221 452.082 351.619C449.091 346.687 447.873 345.634 448.316 344.858Z" fill="#252525"/>
<path d="M434.749 345.8C433.365 346.742 430.042 349.125 429.655 353.392C429.322 357.216 431.593 360.042 432.146 360.652C423.619 363.478 421.791 364.808 421.902 365.528C422.179 366.914 429.821 367.191 436.189 365.418C438.57 364.753 440.73 363.81 442.391 363.035C445.547 361.594 447.153 360.929 447.984 359.82C450.088 357.105 449.368 353.281 448.814 350.566C448.205 347.518 447.818 345.357 445.935 344.027C442.612 341.644 437.296 344.027 434.749 345.8Z" fill="#252525"/>
<path d="M380.205 348.848C378.987 347.019 378.71 345.024 378.544 343.473C377.99 339.483 378.987 336.213 379.651 334.495C379.43 331.946 379.153 329.397 378.931 326.903C379.762 327.291 380.703 327.79 381.7 328.399C383.417 329.508 384.801 330.671 385.853 331.669C387.237 330.948 388.788 330.228 390.615 329.563C392.553 328.843 394.381 328.344 395.987 327.956C396.319 327.069 397.094 325.518 398.645 324.132C399.697 323.19 400.804 322.636 401.524 322.359C401.524 322.858 401.524 323.356 401.579 323.911C401.801 325.739 402.299 327.291 402.853 328.399C403.684 329.009 407.338 331.835 408.224 336.989C408.944 341.034 407.505 344.304 406.674 345.745C403.407 351.674 396.817 352.949 395.322 353.226C390.615 354.168 383.306 353.558 380.205 348.848Z" fill="#252525"/>
<path d="M401.192 311.553C401.967 310.721 402.078 311.386 402.244 312.162C402.355 312.772 402.41 313.437 402.521 314.046C402.632 314.711 402.908 315.432 403.573 315.764C405.234 316.595 407.228 314.434 408.391 313.492C409.221 312.772 408.003 311.608 407.228 312.328C406.674 312.827 406.065 313.27 405.456 313.714C404.791 314.213 404.404 314.434 404.182 313.492C403.961 312.495 404.016 311.386 403.573 310.444C402.798 308.782 401.081 309.336 400.084 310.444C399.309 311.165 400.472 312.328 401.192 311.553Z" fill="white"/>
<path d="M382.973 342.53C385.576 344.969 389.729 343.805 390.504 340.258C390.615 339.76 389.84 339.538 389.729 340.037C389.12 342.918 385.798 344.027 383.638 341.976C383.14 341.588 382.586 342.198 382.973 342.53Z" fill="white"/>
<path d="M395.156 341.921C395.101 341.921 395.101 341.976 395.045 341.976C395.156 342.087 395.322 342.198 395.433 342.309C395.433 342.253 395.433 342.253 395.433 342.198C395.322 342.309 395.267 342.364 395.156 342.475C395.101 342.42 395.101 342.364 395.045 342.309C395.211 342.364 395.433 342.42 395.599 342.475C395.599 342.42 395.544 342.364 395.544 342.253C395.267 342.364 395.045 342.475 394.768 342.586C395.488 343.916 394.381 345.468 392.886 345.191C392.387 345.08 392.166 345.911 392.664 345.966C394.879 346.41 396.54 344.138 395.488 342.143C395.267 341.699 394.658 342.032 394.713 342.475C394.768 342.641 394.768 342.752 394.879 342.863C394.99 343.085 395.267 343.085 395.433 343.029C396.319 342.641 395.765 341.422 394.879 341.699C394.768 341.755 394.602 341.866 394.602 341.976C394.547 342.198 394.547 342.309 394.602 342.531C394.602 342.697 394.824 342.863 394.99 342.863C395.211 342.808 395.322 342.808 395.544 342.697C396.042 342.364 395.654 341.644 395.156 341.921Z" fill="white"/>
<path d="M395.156 342.53C395.654 345.19 399.364 345.246 399.974 342.641C400.084 342.143 399.309 341.921 399.198 342.42C398.755 344.248 396.319 344.138 395.987 342.309C395.876 341.755 395.045 341.976 395.156 342.53Z" fill="white"/>
<path d="M396.817 338.319C399.807 339.649 403.075 337.82 403.407 334.551C403.462 333.996 402.632 333.996 402.576 334.551C402.299 337.155 399.641 338.707 397.205 337.598C396.762 337.377 396.319 338.097 396.817 338.319Z" fill="white"/>
<path d="M372.618 355.997C372.12 354.168 372.84 351.896 374.28 350.621C376.052 349.07 378.377 349.458 381.312 349.901C384.302 350.4 391.114 351.508 394.27 357.161C395.045 358.546 396.097 360.43 395.322 361.816C393.661 364.919 384.469 362.758 379.872 361.095C376.384 359.876 373.338 358.768 372.618 355.997Z" fill="#252525"/>
<path d="M413.374 343.916C412.156 344.027 412.267 346.133 410.273 348.793C408.335 351.342 405.899 352.506 401.469 354.501C397.149 356.496 395.433 356.496 393.384 358.768C392.886 359.322 390.947 361.483 391.612 362.924C392.276 364.365 395.156 364.254 396.983 364.254C398.478 364.198 399.641 364.032 405.566 362.259C408.169 361.483 410.329 360.763 413.042 359.543C415.423 358.435 416.032 357.881 416.475 357.271C418.081 355.11 417.583 352.284 417.306 350.732C416.752 347.74 415.036 343.75 413.374 343.916Z" fill="#252525"/>
<path d="M279.145 338.319C279.478 342.752 282.966 345.689 286.51 348.682C289.556 351.286 295.702 355.609 305.559 357.382C307.387 356.052 310.488 353.503 312.924 349.236C314.918 345.689 315.637 342.364 315.914 340.258C307.11 334.994 298.36 329.729 289.556 324.465C282.911 327.79 278.758 333.165 279.145 338.319Z" fill="white" stroke="#252525" stroke-width="1.02" stroke-miterlimit="10"/>
<path d="M276.543 279.633C271.282 281.406 268.292 285.507 262.588 293.542C256.165 302.63 251.292 310.721 248.8 316.817C248.412 317.704 248.689 318.757 249.464 319.366C250.461 320.142 252.455 320.752 253.562 321.251C253.119 324.298 252.842 328.732 253.894 333.83C255.777 343.029 260.927 349.125 263.474 351.785C268.126 352.228 275.435 352.284 283.575 349.347C286.289 348.349 291.106 346.576 296.035 342.253C300.354 338.485 302.901 334.44 304.341 331.724C305.725 332.057 307.996 332.278 310.432 331.503C315.582 329.896 320.787 324.132 319.126 319.643C317.908 316.318 313.09 314.157 307.608 315.044C308.106 312.938 308.605 309.89 308.605 306.233C308.605 305.346 308.439 298.641 306.058 293.376C301.517 283.345 287.23 276.03 276.543 279.633Z" fill="#FFF7F3" stroke="#252525" stroke-width="1.02" stroke-miterlimit="10"/>
<path d="M253.396 306.842C252.233 303.85 249.852 296.479 252.122 287.779C252.898 284.842 254.448 279.245 259.653 274.7C265.911 269.214 273.276 268.937 275.38 268.937C276.598 267.552 278.702 265.557 281.803 264.282C283.022 263.783 286.399 262.564 293.764 263.617C297.641 264.171 303.51 265.501 310.155 268.937C315.305 271.653 318.462 274.7 320.344 276.917C328.872 286.948 325.66 295.98 334.52 303.794C337.954 306.842 338.895 305.9 344.045 310.223C345.872 311.774 350.468 315.875 354.455 322.193C357.224 326.57 364.201 337.543 362.595 351.453C361.377 362.37 354.455 378.219 344.377 379.493C333.468 380.879 330.81 363.589 309.048 355.276C296.81 350.621 287.784 352.284 286.399 347.74C284.904 342.752 294.263 335.493 302.071 330.283C303.178 331.004 305.338 332.223 307.83 331.835C312.979 331.059 316.523 324.077 314.696 319.865C313.976 318.147 312.481 317.26 312.038 316.983C308.328 314.822 304.175 317.039 303.843 317.205C299.357 312.273 296.09 307.729 293.875 304.348C290.885 299.749 289.5 296.756 289.002 295.703C287.452 292.323 286.51 289.33 285.901 287.058C282.689 287.225 278.259 287.834 273.497 289.718C272.39 290.162 268.513 291.769 264.194 295.038C263.64 295.426 261.259 297.255 258.546 300.248C256.331 302.575 254.614 304.958 253.396 306.842Z" fill="#3E7474"/>
<path d="M262.92 307.396C264.083 309.557 265.412 311.054 267.904 311.497C270.341 311.94 272.722 311.386 274.715 309.89C275.325 309.391 274.715 308.338 274.106 308.837C272.556 310.001 270.728 310.555 268.79 310.389C266.409 310.167 265.135 308.837 264.028 306.787C263.585 306.066 262.533 306.676 262.92 307.396Z" fill="#252525"/>
<path d="M264.637 300.081C268.513 297.809 272.39 298.751 276.044 301.134C276.709 301.578 277.318 300.469 276.653 300.081C272.666 297.477 268.292 296.535 264.028 299.028C263.363 299.416 263.973 300.525 264.637 300.081Z" fill="#252525"/>
<path d="M267.849 319.311C267.683 320.031 267.406 320.031 267.018 319.311C267.074 319.2 267.129 319.145 267.184 319.034C267.295 318.978 267.461 318.978 267.572 319.034C267.683 319.2 267.793 319.366 267.904 319.588C267.849 319.588 267.849 319.643 267.849 319.699C267.572 319.699 267.24 319.699 266.963 319.699C267.074 319.477 267.184 319.2 267.24 318.978C266.907 318.923 266.631 319.311 266.631 319.588C266.631 319.976 266.907 320.197 267.24 320.197C267.96 320.253 268.403 319.255 267.793 318.812C267.517 318.59 267.184 318.59 266.907 318.812C266.464 319.2 266.464 320.031 267.074 320.253C267.572 320.419 268.181 320.031 268.181 319.477C268.181 318.923 267.683 318.535 267.184 318.646C266.741 318.757 266.409 319.2 266.575 319.643C266.907 320.364 268.07 320.087 267.849 319.311Z" fill="#252525"/>
<path d="M273.774 317.26C273.829 317.538 273.442 317.704 273.22 317.482C273.165 317.427 273.109 317.371 273.109 317.26C273.552 316.762 273.774 316.762 273.885 317.316C274.106 316.54 272.943 316.208 272.666 316.983C272.5 317.538 272.943 318.092 273.497 318.092C274.051 318.092 274.438 317.648 274.328 317.094C274.272 316.595 273.774 316.208 273.22 316.318C272.666 316.429 272.39 317.039 272.5 317.538C272.777 318.369 273.995 318.036 273.774 317.26Z" fill="#252525"/>
<path d="M271.947 322.525C272.334 322.525 272.113 323.301 271.725 323.079C271.282 322.858 271.891 322.137 272.113 322.581C271.725 321.86 270.673 322.525 271.061 323.19C271.337 323.689 272.002 323.8 272.445 323.467C272.999 323.079 272.943 322.303 272.39 321.971C271.891 321.638 271.171 321.86 271.005 322.47C270.839 323.079 271.337 323.8 272.002 323.744C272.334 323.744 272.611 323.467 272.611 323.135C272.556 322.802 272.279 322.47 271.947 322.525Z" fill="#252525"/>
<path d="M253.95 331.392C258.324 331.447 262.311 329.84 265.412 326.737C265.966 326.182 265.08 325.296 264.526 325.85C261.647 328.732 257.992 330.172 253.95 330.117C253.119 330.117 253.119 331.336 253.95 331.392Z" fill="#252525"/>
<path opacity="0.1" d="M285.901 286.781C286.787 293.099 287.839 298.253 288.559 301.744C290.553 311.109 291.992 314.878 291.217 320.807C290.608 325.351 289.058 328.621 288.172 330.45C281.748 343.86 267.517 350.067 263.031 351.84C265.523 352.062 268.513 352.118 271.78 351.84C277.761 351.286 282.689 349.735 286.233 348.294C287.562 349.624 289.224 351.065 291.217 352.395C296.589 355.941 301.905 357.105 305.282 357.548C306.611 356.662 307.885 355.775 309.214 354.888C311.817 355.997 315.638 357.825 319.846 360.818C332.472 369.74 335.517 379.604 343.159 379.272C346.98 379.105 350.524 376.556 351.299 375.947C353.348 374.395 354.843 372.566 356.504 369.685C358.609 366.027 362.706 358.768 362.872 348.294C362.983 341.81 361.488 336.435 360.104 332.777C347.589 348.349 328.761 353.558 315.638 347.019C306.833 342.641 302.846 334.107 301.351 330.228C306.002 332.722 311.374 331.447 313.81 327.9C315.638 325.24 316.247 320.585 313.256 317.759C310.875 315.432 306.999 315.044 303.787 316.873C300.852 313.825 297.641 309.89 294.54 305.124C290.276 298.363 287.562 291.88 285.901 286.781Z" fill="#152727"/>
<path d="M178.141 278.302C184.897 277.97 190.268 282.514 192.04 284.01C192.483 284.398 193.812 285.451 196.913 289.441C199.904 293.32 201.343 296.368 205.497 301.744C209.76 307.285 213.969 310.389 222.331 316.595C229.972 322.303 236.008 325.517 244.647 330.172C258.712 337.654 269.953 343.694 285.735 348.349C295.481 351.231 297.641 350.787 305.947 354.113C316.69 358.38 327.377 362.647 329.149 371.513C330.146 376.39 328.374 382.43 324.276 385.534C320.4 388.471 314.585 388.748 298.582 382.985C271.614 373.287 252.067 359.654 241.989 352.118C239.109 349.956 235.233 346.742 227.425 340.369C213.858 329.286 202.949 320.031 195.64 313.658C193.812 313.27 190.047 312.495 185.174 311.497C177.532 309.945 175.373 309.557 172.548 308.006C168.561 305.845 163.965 301.965 164.685 300.137C165.627 297.809 175.096 299.804 176.646 300.081C175.76 298.696 174.376 296.922 172.327 295.149C167.565 291.048 164.131 291.436 163.522 289.33C162.581 285.95 170.001 278.69 178.141 278.302Z" fill="#FFF7F3" stroke="#252525" stroke-width="1.02" stroke-miterlimit="10"/>
<path d="M164.408 286.781C169.337 286.837 172.936 290.051 176.314 293.21C176.923 293.764 177.754 292.877 177.2 292.323C173.545 288.887 169.614 285.562 164.408 285.507C163.633 285.562 163.633 286.781 164.408 286.781Z" fill="#252525"/>
<path d="M167.897 283.013C172.825 283.179 177.145 285.285 180.356 289.053C180.855 289.663 181.741 288.776 181.242 288.167C177.864 284.177 173.102 281.96 167.897 281.794C167.066 281.738 167.066 282.958 167.897 283.013Z" fill="#252525"/>
<path d="M175.206 279.522C178.695 280.353 181.741 282.237 184.011 285.008C184.509 285.617 185.395 284.731 184.897 284.121C182.461 281.184 179.249 279.189 175.539 278.303C174.763 278.136 174.431 279.355 175.206 279.522Z" fill="#252525"/>
<path opacity="0.16" d="M164.298 286.061C165.627 285.008 168.451 286.615 170.887 288.056C174.044 289.885 176.148 291.658 176.868 292.212C178.308 293.154 179.249 294.817 179.249 294.817C180.578 296.978 187.223 299.472 187.223 299.472C190.49 300.691 192.096 302.852 201.011 310.278C210.979 318.535 218.067 325.518 219.783 327.18C234.901 341.644 265.745 359.377 298.139 367.08C311.983 370.35 328.041 372.345 328.706 378.385C329.038 381.655 324.885 384.869 322.116 386.31C319.126 387.917 311.484 390.743 280.751 375.725C271.947 371.403 262.311 366.692 250.074 358.269C244.979 354.778 241.38 351.951 223.826 337.377C216.35 331.17 206.826 323.245 195.695 313.88C189.826 312.993 171.718 310.001 165.959 303.24C165.405 302.575 164.076 301.023 164.575 300.026C165.405 298.197 171.552 299.305 176.812 300.58C174.764 297.2 172.549 295.315 170.998 294.152C167.509 291.658 164.187 291.048 163.744 288.499C163.522 287.668 163.633 286.56 164.298 286.061Z" fill="#6D6C6C"/>
<path opacity="0.11" d="M164.907 300.469C167.232 301.744 169.78 303.018 172.548 304.237C181.685 308.227 190.324 310.056 197.412 310.887C198.741 311.885 200.845 313.437 203.392 315.432C213.028 323.135 219.451 329.674 220.835 331.115C229.585 339.87 249.243 353.946 269.621 364.198C282.412 370.627 301.517 378.662 326.436 383.372C325.771 384.37 324.442 386.032 322.227 386.919C321.009 387.418 319.68 387.64 316.634 387.418C311.761 387.085 308.605 386.143 308.605 386.143C293.488 381.655 277.927 373.896 277.927 373.896C268.513 369.241 263.807 366.914 258.324 363.422C249.907 358.158 244.148 353.392 240.881 350.677C229.086 340.923 213.858 328.455 195.529 313.381C189.659 312.661 184.842 311.608 181.242 310.721C171.275 308.227 168.229 306.122 166.402 303.351C165.516 302.242 165.128 301.134 164.907 300.469Z" fill="#6D6C6C"/>
</svg>
